<svg id="Layer_1" data-name="Layer 1" xmlns="http://www.w3.org/2000/svg" viewBox="0 0 284.23 72.17"><defs><style>.cls-1{fill:#fff;}</style></defs><title>logo</title><path class="cls-1" d="M13,74.73A5.49,5.49,0,0,1,17,76.31a.73.73,0,0,1,.18.92.68.68,0,0,1-.78.35,1.1,1.1,0,0,1-.53-.35,4.12,4.12,0,0,0-4.31-.8,4.23,4.23,0,0,0-2.68,4.78,4.28,4.28,0,0,0,4,3.43A4.15,4.15,0,0,0,16,83.47a.73.73,0,0,1,1-.12.68.68,0,0,1,.18.88,1.31,1.31,0,0,1-.25.32A5.66,5.66,0,0,1,9,84.39a5.4,5.4,0,0,1-1.39-5.64,5.49,5.49,0,0,1,4.26-3.92A4.67,4.67,0,0,1,13,74.73Z" transform="translate(-5.35 -13.91)"/><path class="cls-1" d="M25.46,75.57h4.89a1.22,1.22,0,1,1,0,2.43H20.56a1.22,1.22,0,0,1-.37-2.4,2.12,2.12,0,0,1,.44,0Z" transform="translate(-5.35 -13.91)"/><path class="cls-1" d="M25.61,83h4.83a1.22,1.22,0,1,1,0,2.44H20.71a1.23,1.23,0,0,1-1.29-1.06,1.2,1.2,0,0,1,.9-1.33,1.83,1.83,0,0,1,.47,0Z" transform="translate(-5.35 -13.91)"/><path class="cls-1" d="M34,80.39V75.94a1.09,1.09,0,0,1,.06-.44.67.67,0,0,1,.67-.47.68.68,0,0,1,.66.54,1.83,1.83,0,0,1,0,.47c0,2.65,0,5.3,0,7.95,0,.31.09.37.37.37,1.42,0,2.84,0,4.25,0,.5,0,.75.19.84.58a.68.68,0,0,1-.56.82,1.5,1.5,0,0,1-.37,0H35c-.75,0-1-.22-1-1Z" transform="translate(-5.35 -13.91)"/><path class="cls-1" d="M42.46,80.39V75.94a.94.94,0,0,1,.06-.44.67.67,0,0,1,.67-.47.68.68,0,0,1,.66.54,1.83,1.83,0,0,1,0,.47c0,2.65,0,5.3,0,7.95,0,.31.09.37.38.37,1.42,0,2.83,0,4.25,0,.49,0,.75.19.83.58a.67.67,0,0,1-.55.82,1.5,1.5,0,0,1-.37,0h-5c-.75,0-1-.22-1-1Z" transform="translate(-5.35 -13.91)"/><path class="cls-1" d="M24.45,81.34a1.25,1.25,0,0,0,0-1.75c.08-.1.18-.06.26-.06h5.91c.69,0,1.12.41,1.09,1a.91.91,0,0,1-.84.86q-3.2,0-6.38,0S24.48,81.37,24.45,81.34Z" transform="translate(-5.35 -13.91)"/><path class="cls-1" d="M21.94,81.4H20.28a.9.9,0,0,1-1-.86.87.87,0,0,1,.86-1c1.16,0,2.33,0,3.49,0a.89.89,0,0,1,.88,1,.94.94,0,0,1-1,.9Z" transform="translate(-5.35 -13.91)"/><path class="cls-1" d="M22.43,20.11c.06-1.36.15-2.7.08-4,0-.58-.07-1.15-.11-1.73a.37.37,0,0,1,.16-.38c.21-.11.39,0,.4.21.05,2.46.11,4.92,0,7.37a3.29,3.29,0,0,1-.05.44c0,.09,0,.19-.14.21a.23.23,0,0,1-.23-.16c0-.11-.08-.21-.11-.32C21.62,19.37,21,17,20.25,14.64c-.05-.16-.07-.33.13-.4s.22.12.27.23a24.21,24.21,0,0,1,1.08,3.21C22,18.49,22.2,19.3,22.43,20.11Z" transform="translate(-5.35 -13.91)"/><path class="cls-1" d="M29.16,20.3c.2-.89.4-1.78.59-2.67a25.15,25.15,0,0,0,.48-3,.32.32,0,0,1,.39-.32c.23,0,.22.18.18.38-.44,2.34-.87,4.69-1.45,7,0,.15-.09.31-.14.45s-.05.28-.21.27-.2-.16-.21-.3c-.06-.53-.14-1.06-.19-1.58-.18-2-.35-4-.54-6,0-.16,0-.31.18-.35s.23.15.26.28a20.51,20.51,0,0,1,.36,2.82c.09,1,.16,2,.24,3Z" transform="translate(-5.35 -13.91)"/><path class="cls-1" d="M35.46,22.14a40.54,40.54,0,0,0,2.7-5c.08-.17.14-.33.37-.33s.36.17.25.38c-1.17,2.18-2.3,4.39-3.61,6.49a1.88,1.88,0,0,1-.16.23c-.07.08-.12.25-.28.19s-.14-.2-.11-.35c.11-.56.2-1.13.32-1.7q.6-2.85,1.23-5.7l0-.16a.21.21,0,0,1,.24-.19c.15,0,.18.11.18.24a9.79,9.79,0,0,1-.17,1.31c-.27,1.47-.62,2.92-1,4.37A1.42,1.42,0,0,0,35.46,22.14Z" transform="translate(-5.35 -13.91)"/><path class="cls-1" d="M16.83,22.26A2.9,2.9,0,0,0,16,20.4a10.09,10.09,0,0,0-1.51-1.26,4.48,4.48,0,0,1-1.38-1.52,1.6,1.6,0,0,1-.09-1.46.85.85,0,0,1,.9-.52c.11,0,.24,0,.24.19a.25.25,0,0,1-.19.28c-.49.16-.63.44-.45.95a3.29,3.29,0,0,0,1.1,1.43c.45.36.93.69,1.37,1.06a3.56,3.56,0,0,1,1.39,2.36,1.35,1.35,0,0,1-1,1.6,1.3,1.3,0,0,1-.34,0,.24.24,0,0,1-.23-.24.22.22,0,0,1,.19-.24l.2,0C16.7,22.94,16.84,22.77,16.83,22.26Z" transform="translate(-5.35 -13.91)"/><path class="cls-1" d="M42.15,34.81A14.87,14.87,0,0,0,33.52,26,21,21,0,0,0,20.31,25a21.26,21.26,0,0,0-3.73,1.26.38.38,0,0,1-.46,0,2.51,2.51,0,0,0-4.05,2.55.3.3,0,0,1-.12.35,3.88,3.88,0,0,0-.31.26,17.56,17.56,0,0,0-5.53,8.5,20.8,20.8,0,0,0-.68,7.57A16.64,16.64,0,0,0,6.8,51Q8,53.54,9.34,56A81,81,0,0,0,16.1,66.11a.85.85,0,0,1,.19.42,2.5,2.5,0,0,0,4.06,1.56,1,1,0,0,1,.59-.19c2.5,0,5,0,7.51.08a1.81,1.81,0,0,0,1.78-1.11,6.93,6.93,0,0,0,.55-1.78A26.71,26.71,0,0,1,31.87,61a12.67,12.67,0,0,1,2.41-4.41A11.79,11.79,0,0,0,36,54.1a27.88,27.88,0,0,0,2.79-9.7,10.59,10.59,0,0,0-.56-4.92A14.54,14.54,0,0,0,32.43,32a13,13,0,0,0-7.88-2.08,20.06,20.06,0,0,0-6.43,1.47,12.17,12.17,0,0,0-3.36,1.82,12.15,12.15,0,0,0-4,6.55,17.9,17.9,0,0,0,.33,10.15,14.07,14.07,0,0,0,3.13,5.62,13,13,0,0,0,7.94,3.77,4.52,4.52,0,0,0,2.65-.39A2,2,0,0,0,26,57.45a4.12,4.12,0,0,0-.53-3c-.14-.23-.12-.28.14-.32A10.22,10.22,0,0,0,28,53.42a6.67,6.67,0,0,0,2.18-1.53c.14-.15.15-.25,0-.4s-.44-.58-.67-.86a.71.71,0,0,0-1-.22,6,6,0,0,0-.59.34A7.84,7.84,0,0,1,23.46,52a4.73,4.73,0,0,1-4.35-2.85,9.18,9.18,0,0,1-.75-3.22c0-.3,0-.39.35-.39,3.61,0,7.22,0,10.84,0l.47,0a.53.53,0,0,0,.49-.45,2.73,2.73,0,0,0,.06-.5,9.18,9.18,0,0,0-.51-3.41,6.43,6.43,0,0,0-2.83-3.49,7.68,7.68,0,0,0-5.31-.89,7.43,7.43,0,0,0-5.83,4.52,10.78,10.78,0,0,0-.33,7.09,8.9,8.9,0,0,0,2.78,4.5,8.41,8.41,0,0,0,4,2.17,1.29,1.29,0,0,1,1.18,1.57.27.27,0,0,1-.22.29,2.33,2.33,0,0,1-.91.08,11.11,11.11,0,0,1-4.95-1.84,8.24,8.24,0,0,1-2.63-2.93,16,16,0,0,1-1.86-5.61,13.13,13.13,0,0,1,1.2-8,7.27,7.27,0,0,1,3.36-3.56,18.26,18.26,0,0,1,7-1.84,10.54,10.54,0,0,1,10.85,7.72A7.51,7.51,0,0,1,36,44.16a39.52,39.52,0,0,1-.71,3.91,17.59,17.59,0,0,1-2.17,5.61c-.38.6-.88,1.09-1.3,1.65a18.24,18.24,0,0,0-2.5,5.18,32,32,0,0,0-1.05,4.43c0,.26-.16.34-.42.34l-6.29,0a.42.42,0,0,1-.46-.29,2.49,2.49,0,0,0-3.15-1.28.31.31,0,0,1-.42-.13c-.39-.51-.79-1-1.18-1.53A87.4,87.4,0,0,1,9.12,51.22a15.27,15.27,0,0,1-1.57-3.75,20.06,20.06,0,0,1-.18-8.69A15.67,15.67,0,0,1,12.44,30c.16-.15.25-.14.42,0a2.37,2.37,0,0,0,2.19.55,2.46,2.46,0,0,0,1.85-3.2c-.07-.25,0-.34.21-.45A18.07,18.07,0,0,1,24,25.3a20.72,20.72,0,0,1,11,2.4,12.49,12.49,0,0,1,5.31,5.64,19.37,19.37,0,0,1,1.84,7A22.5,22.5,0,0,1,40.88,50a28.27,28.27,0,0,1-4.06,7.15c-1,1.38-2.31,2.6-2.79,4.34-.16.58-.45,1.12-.62,1.69a35.63,35.63,0,0,0-1.28,6.63c0,.3-.13.36-.42.36-3.67,0-7.34,0-11,.08a3.58,3.58,0,0,0-2.79,1.33.84.84,0,0,0-.06,1,.68.68,0,0,0,.79.36h6.83c2.25,0,4.49,0,6.73,0a2.2,2.2,0,0,0,2.15-2,37.73,37.73,0,0,1,.92-5.79A12.76,12.76,0,0,1,37.64,60a27.57,27.57,0,0,0,2.45-3.67,24.32,24.32,0,0,0,2.06-21.48ZM18.49,43.33a5.34,5.34,0,0,1,2.15-3.71c1.58-1.08,4.69-1.24,6.23.78a5.16,5.16,0,0,1,1,3c0,.27-.17.21-.31.21H18.76C18.52,43.63,18.44,43.59,18.49,43.33Z" transform="translate(-5.35 -13.91)"/><path class="cls-1" d="M101.32,20.83V31.42H77V45.26H95.62V55.44H77V69.56h24.34V80.15H63.14V20.83Z" transform="translate(-5.35 -13.91)"/><path class="cls-1" d="M111.58,50.31h22V60.48h-22Z" transform="translate(-5.35 -13.91)"/><path class="cls-1" d="M185.64,64.8a2.77,2.77,0,0,1,1,.18,2.59,2.59,0,0,1,.94.63L193,71.35a22.69,22.69,0,0,1-9,7.07,31.55,31.55,0,0,1-12.76,2.38,30.49,30.49,0,0,1-12.12-2.3,26.09,26.09,0,0,1-9.07-6.35,27.76,27.76,0,0,1-5.72-9.61,35.5,35.5,0,0,1-2-12.07,31.85,31.85,0,0,1,2.28-12.2A28.35,28.35,0,0,1,151,28.69a28.67,28.67,0,0,1,9.79-6.27,34.21,34.21,0,0,1,12.58-2.24,32.23,32.23,0,0,1,6.29.59,30.61,30.61,0,0,1,5.52,1.63,26.05,26.05,0,0,1,4.72,2.48,22.34,22.34,0,0,1,3.83,3.2l-4.64,6.23a5.76,5.76,0,0,1-1.06,1,2.72,2.72,0,0,1-1.71.47,3.11,3.11,0,0,1-1.38-.32c-.44-.22-.9-.49-1.39-.8l-1.61-1a12.49,12.49,0,0,0-2.07-1,16.7,16.7,0,0,0-2.81-.8,19.79,19.79,0,0,0-3.77-.32,17.24,17.24,0,0,0-6.84,1.32,14.9,14.9,0,0,0-5.31,3.79,17.58,17.58,0,0,0-3.46,6,23.36,23.36,0,0,0-1.24,7.86,24.35,24.35,0,0,0,1.24,8.1,17.69,17.69,0,0,0,3.38,6,14.2,14.2,0,0,0,5,3.69,15,15,0,0,0,6.11,1.26,29.71,29.71,0,0,0,3.42-.18,13.87,13.87,0,0,0,2.87-.63A14.09,14.09,0,0,0,181,67.51a18.08,18.08,0,0,0,2.42-1.77,4.56,4.56,0,0,1,1.06-.68A2.85,2.85,0,0,1,185.64,64.8Z" transform="translate(-5.35 -13.91)"/><path class="cls-1" d="M220.61,37.28a21.7,21.7,0,0,1,7.67,1.3,16.69,16.69,0,0,1,6,3.79,17.26,17.26,0,0,1,3.91,6.08,22.5,22.5,0,0,1,1.4,8.17,18.15,18.15,0,0,1-.12,2.32,3.6,3.6,0,0,1-.45,1.42,1.71,1.71,0,0,1-.87.73,4,4,0,0,1-1.41.21H212.39c.4,3.53,1.47,6.08,3.21,7.67a9.57,9.57,0,0,0,6.72,2.38,11.83,11.83,0,0,0,3.79-.53,18.13,18.13,0,0,0,2.82-1.18l2.28-1.18a4.8,4.8,0,0,1,2.18-.53,2.6,2.6,0,0,1,2.28,1.1l3.67,4.52a19.06,19.06,0,0,1-4.22,3.65,21.52,21.52,0,0,1-4.64,2.19,24.8,24.8,0,0,1-4.76,1.1,34.65,34.65,0,0,1-4.54.31,23.61,23.61,0,0,1-8.33-1.45,19.17,19.17,0,0,1-6.8-4.29,20.29,20.29,0,0,1-4.6-7.09,26.56,26.56,0,0,1-1.69-9.85,22.41,22.41,0,0,1,1.45-8A19.47,19.47,0,0,1,211.92,39,21.48,21.48,0,0,1,220.61,37.28Zm.24,8.71a7.63,7.63,0,0,0-5.66,2.06A10.71,10.71,0,0,0,212.51,54h15.75a11.49,11.49,0,0,0-.38-2.93,7.11,7.11,0,0,0-1.27-2.55,6.44,6.44,0,0,0-2.3-1.81A7.88,7.88,0,0,0,220.85,46Z" transform="translate(-5.35 -13.91)"/><path class="cls-1" d="M263.11,19.2v61H250.49V19.2Z" transform="translate(-5.35 -13.91)"/><path class="cls-1" d="M289.57,19.2v61H277V19.2Z" transform="translate(-5.35 -13.91)"/></svg>